<svg width="26" height="28" viewBox="0 0 26 28" fill="none" xmlns="http://www.w3.org/2000/svg">
<path d="M15.6664 27H10.333M20.9997 9.66663C20.9997 7.54489 20.1568 5.51006 18.6566 4.00977C17.1563 2.50948 15.1214 1.66663 12.9997 1.66663C10.878 1.66663 8.84314 2.50948 7.34284 4.00977C5.84255 5.51006 4.9997 7.54489 4.9997 9.66663C4.9997 13.7869 3.96033 16.6079 2.79925 18.4738C1.81987 20.0478 1.33018 20.8348 1.34813 21.0543C1.36801 21.2974 1.41951 21.3901 1.6154 21.5354C1.79231 21.6666 2.58982 21.6666 4.18484 21.6666H21.8146C23.4096 21.6666 24.2071 21.6666 24.384 21.5354C24.5799 21.3901 24.6314 21.2974 24.6513 21.0543C24.6692 20.8348 24.1795 20.0478 23.2001 18.4738C22.0391 16.6079 20.9997 13.7869 20.9997 9.66663Z" stroke="black" stroke-width="2" stroke-linecap="round" stroke-linejoin="round"/>
</svg>
