<svg width="18" height="14" viewBox="0 0 18 14" fill="none" xmlns="http://www.w3.org/2000/svg">
<path d="M1.01677 7.59434C0.90328 7.41464 0.846535 7.32479 0.81477 7.1862C0.79091 7.0821 0.79091 6.91794 0.81477 6.81384C0.846535 6.67525 0.90328 6.5854 1.01677 6.40571C1.95461 4.92072 4.74617 1.16669 9.00034 1.16669C13.2545 1.16669 16.0461 4.92072 16.9839 6.4057C17.0974 6.5854 17.1541 6.67525 17.1859 6.81384C17.2098 6.91794 17.2098 7.0821 17.1859 7.1862C17.1541 7.32479 17.0974 7.41464 16.9839 7.59434C16.0461 9.07932 13.2545 12.8334 9.00034 12.8334C4.74617 12.8334 1.95461 9.07932 1.01677 7.59434Z" stroke="#4F4F4F" stroke-width="1.6" stroke-linecap="round" stroke-linejoin="round"/>
<path d="M9.00034 9.50002C10.381 9.50002 11.5003 8.38073 11.5003 7.00002C11.5003 5.61931 10.381 4.50002 9.00034 4.50002C7.61962 4.50002 6.50034 5.61931 6.50034 7.00002C6.50034 8.38073 7.61962 9.50002 9.00034 9.50002Z" stroke="#4F4F4F" stroke-width="1.6" stroke-linecap="round" stroke-linejoin="round"/>
</svg>
